HIERARCHY
ROOT Hips
{
	OFFSET 177.014694 92.208603 81.662811
	CHANNELS 6 Xposition Yposition Zposition Zrotation Yrotation Xrotation 
	JOINT LeftUpLeg
	{
		OFFSET 0.103459 1.857826 10.548510
		CHANNELS 3 Zrotation Yrotation Xrotation
		JOINT LeftLeg
		{
			OFFSET 43.500000 -0.000023 0.000004
			CHANNELS 3 Zrotation Yrotation Xrotation
			JOINT LeftFoot
			{
				OFFSET 42.372200 0.000015 0.000002
				CHANNELS 3 Zrotation Yrotation Xrotation
				JOINT LeftToe
				{
					OFFSET 17.299997 -0.000001 -0.000010
					CHANNELS 3 Zrotation Yrotation Xrotation
					End Site
					{
						OFFSET 0.000000 0.000000 0.000000
					}
				}
			}
		}
	}
	JOINT RightUpLeg
	{
		OFFSET 0.103462 1.857828 -10.548512
		CHANNELS 3 Zrotation Yrotation Xrotation
		JOINT RightLeg
		{
			OFFSET 43.500046 -0.000019 0.000004
			CHANNELS 3 Zrotation Yrotation Xrotation
			JOINT RightFoot
			{
				OFFSET 42.372265 -0.000008 0.000019
				CHANNELS 3 Zrotation Yrotation Xrotation
				JOINT RightToe
				{
					OFFSET 17.299994 -0.000005 -0.000002
					CHANNELS 3 Zrotation Yrotation Xrotation
					End Site
					{
						OFFSET 0.000000 0.000000 0.000000
					}
				}
			}
		}
	}
	JOINT Spine
	{
		OFFSET 6.901970 -2.603727 0.000005
		CHANNELS 3 Zrotation Yrotation Xrotation
		JOINT Spine1
		{
			OFFSET 12.588102 0.000001 -0.000000
			CHANNELS 3 Zrotation Yrotation Xrotation
			JOINT Spine2
			{
				OFFSET 12.343201 -0.000005 -0.000002
				CHANNELS 3 Zrotation Yrotation Xrotation
				JOINT Neck
				{
					OFFSET 25.832886 -0.000002 0.000004
					CHANNELS 3 Zrotation Yrotation Xrotation
					JOINT Head
					{
						OFFSET 11.766621 0.000007 -0.000003
						CHANNELS 3 Zrotation Yrotation Xrotation
						End Site
						{
							OFFSET 0.000000 0.000000 0.000000
						}
					}
				}
				JOINT LeftShoulder
				{
					OFFSET 19.745899 -1.480368 6.000106
					CHANNELS 3 Zrotation Yrotation Xrotation
					JOINT LeftArm
					{
						OFFSET 11.284125 -0.000008 -0.000024
						CHANNELS 3 Zrotation Yrotation Xrotation
						JOINT LeftForeArm
						{
							OFFSET 33.000053 0.000001 0.000031
							CHANNELS 3 Zrotation Yrotation Xrotation
							JOINT LeftHand
							{
								OFFSET 25.200008 0.000018 0.000007
								CHANNELS 3 Zrotation Yrotation Xrotation
								End Site
								{
									OFFSET 0.000000 0.000000 0.000000
								}
							}
						}
					}
				}
				JOINT RightShoulder
				{
					OFFSET 19.746098 -1.480373 -6.000077
					CHANNELS 3 Zrotation Yrotation Xrotation
					JOINT RightArm
					{
						OFFSET 11.284138 -0.000021 -0.000000
						CHANNELS 3 Zrotation Yrotation Xrotation
						JOINT RightForeArm
						{
							OFFSET 33.000088 0.000017 0.000003
							CHANNELS 3 Zrotation Yrotation Xrotation
							JOINT RightHand
							{
								OFFSET 25.199770 0.000141 0.000423
								CHANNELS 3 Zrotation Yrotation Xrotation
								End Site
								{
									OFFSET 0.000000 0.000000 0.000000
								}
							}
						}
					}
				}
			}
		}
	}
}
MOTION
Frames: 5
Frame Time: 0.033333
177.014694 92.208603 81.662811 90.470193 3.664983 88.912834 -174.836218 -1.873902 179.155630 -8.631949 -2.796510 -3.939957 82.390987 2.679311 -0.609022 21.454555 0.003096 0.000003 -177.677727 1.761790 178.814872 -13.674300 1.847648 0.296302 82.935080 -0.238075 0.086523 21.454560 -0.003104 -0.000016 6.648581 -0.238200 0.031870 3.284941 -0.481839 0.069191 2.966816 -0.481270 0.071997 16.853227 3.178451 0.300683 -18.283460 -1.285321 0.837757 -79.327306 -79.705145 -103.405089 -10.759331 -4.225289 -10.874136 -8.438167 -13.983498 0.926629 12.491888 6.994106 1.444433 -147.789352 88.603386 33.942007 0.018030 0.446844 7.423091 -14.601860 17.435171 -1.208537 17.835398 3.029038 -10.112944 
177.019806 92.209106 81.658020 90.470206 3.664967 88.916120 -174.840835 -1.873893 179.161108 -8.634565 -2.796520 -3.939966 82.390987 2.679308 -0.606377 21.454558 0.003095 0.000001 -177.677741 1.761807 178.814872 -13.674300 1.847646 0.296306 82.930764 -0.238069 0.092379 21.454558 -0.003107 -0.000017 6.648575 -0.238211 0.031863 3.279918 -0.477439 0.069192 2.961818 -0.476853 0.071996 16.885464 3.133746 0.316192 -18.284463 -1.285320 0.850202 -79.352632 -79.713191 -103.379004 -10.811200 -4.212818 -10.912789 -8.479561 -14.019931 0.926630 12.475149 6.994109 1.446643 -148.235035 88.623562 33.494462 0.029014 0.436542 7.460411 -14.619981 17.443601 -1.208536 17.827168 2.993360 -10.131098 
177.030899 92.210068 81.646957 90.470186 3.664967 88.926065 -174.853758 -1.870195 179.178798 -8.642985 -2.796520 -3.939961 82.390981 2.679306 -0.598904 21.454553 0.003095 0.000000 -177.683587 1.766596 178.818560 -13.673624 1.847643 0.296307 82.922834 -0.238071 0.107051 21.454560 -0.003115 -0.000018 6.648574 -0.232336 0.031872 3.269506 -0.465682 0.069191 2.951396 -0.465117 0.071996 16.928984 3.027348 0.345609 -18.233948 -1.294755 0.882155 -79.454423 -79.735990 -103.274530 -10.924719 -4.199666 -10.984362 -8.565594 -14.085698 0.931015 12.381639 6.982279 1.399843 -149.640074 88.666456 32.085227 0.059602 0.435982 7.518582 -14.652501 17.455179 -1.208538 17.801466 2.907220 -10.148471 
177.042099 92.210327 81.636681 90.470200 3.671464 88.938612 -174.858758 -1.862494 179.196105 -8.647477 -2.796519 -3.939969 82.390981 2.679311 -0.590310 21.454551 0.003085 -0.000002 -177.688164 1.774104 178.829748 -13.684521 1.842597 0.294304 82.919617 -0.233017 0.123288 21.454558 -0.003105 -0.000017 6.648574 -0.226748 0.031868 3.264515 -0.454440 0.064943 2.946392 -0.453897 0.067696 16.991900 2.931942 0.375589 -18.250453 -1.294328 0.911557 -79.571403 -79.771186 -103.153683 -11.011750 -4.196223 -11.014719 -8.674693 -14.163542 0.936220 12.302990 6.895934 1.382670 -150.712427 88.706836 31.009609 0.078053 0.431365 7.526004 -14.667927 17.479149 -1.208537 17.730471 2.829200 -10.164868 
177.053101 92.210129 81.627563 90.476777 3.684323 88.952921 -174.860875 -1.850298 179.211610 -8.651552 -2.796519 -3.939971 82.390981 2.679311 -0.581212 21.454555 0.003100 0.000001 -177.693518 1.785500 178.851768 -13.710171 1.834618 0.286774 82.922875 -0.223927 0.140233 21.454560 -0.003094 -0.000014 6.648583 -0.223021 0.031869 3.265563 -0.446911 0.057531 2.947437 -0.446422 0.060229 17.058843 2.888818 0.390025 -18.321760 -1.315547 0.933776 -79.630443 -79.816826 -103.089944 -11.060526 -4.182427 -10.978499 -8.823508 -14.276122 0.943741 12.325694 6.674671 1.370502 -151.125408 88.720681 30.595324 0.072592 0.427228 7.456415 -14.680329 17.519420 -1.208535 17.631000 2.765087 -10.172124 
